# xmcd
#
# Track frame offsets: 
#        150
#        18895
#        39074
#        57175
#        74140
#        96452
#        102754
#        120351
#        142033
#        158403
#        177602
#
# Disc length: 2616 seconds
#
# Revision: 2
# Processed by: cddbd v1.5.2PL0 Copyright (c) Steve Scherf et al.
# Submitted via: ExactAudioCopy v1.0b2
#
DISCID=8e0a360b
DTITLE=張敬軒 - My Way
DYEAR=2002
DGENRE=R&B
TTITLE0=My Way
TTITLE1=斷點
TTITLE2=自愛
TTITLE3=Paris
TTITLE4=明了
TTITLE5=Interlude
TTITLE6=釋放
TTITLE7=聲音
TTITLE8=晚妝
TTITLE9=我的寶貝
TTITLE10=My Way (粵)
EXTD=
EXTT0=
EXTT1=
EXTT2=
EXTT3=
EXTT4=
EXTT5=
EXTT6=
EXTT7=
EXTT8=
EXTT9=
EXTT10=
PLAYORDER=
